<svg xmlns="http://www.w3.org/2000/svg" version="1.1" xmlns:xlink="http://www.w3.org/1999/xlink" xmlns:svgjs="http://svgjs.dev/svgjs" width="1000" height="1000" viewBox="0 0 1000 1000"><rect width="1000" height="1000" fill="#0d0d68"></rect><g transform="matrix(0.7,0,0,0.7,149.57575757575756,282.1265587044535)"><svg viewBox="0 0 396 247" data-background-color="#0d0d68" preserveAspectRatio="xMidYMid meet" height="623" width="1000" xmlns="http://www.w3.org/2000/svg" xmlns:xlink="http://www.w3.org/1999/xlink"><g id="tight-bounds" transform="matrix(1,0,0,1,0.2400000000000091,-0.09999999999999432)"><svg viewBox="0 0 395.52 247.2" height="247.2" width="395.52"><g><svg></svg></g><g><svg viewBox="0 0 395.52 247.2" height="247.2" width="395.52"><g transform="matrix(1,0,0,1,39.55199999999999,91.93082400260163)"><svg viewBox="0 0 316.416 63.338351994796746" height="63.338351994796746" width="316.416"><g><svg viewBox="0 0 316.416 63.338351994796746" height="63.338351994796746" width="316.416"><g><svg viewBox="0 0 316.41600000000005 63.33835199479676" height="63.338351994796746" width="316.416"><g><svg viewBox="0 0 316.41600000000005 63.33835199479676" height="63.33835199479676" width="316.41600000000005"><g id="textblocktransform"><svg viewBox="0 0 316.41600000000005 63.33835199479676" height="63.33835199479676" width="316.41600000000005" id="textblock"><g><svg viewBox="0 0 316.41600000000005 35.90764227642277" height="35.90764227642277" width="316.41600000000005"><g transform="matrix(1,0,0,1,0,0)"><svg width="316.41600000000005" viewBox="2.1500000953674316 -33 295.17999267578125 33.5" height="35.90764227642277" data-palette-color="#fef6ff"><path d="M24.7 0L9.35 0 9.35-0.8 14.4-2.8 14.4-30.25 6.5-30.25 2.95-22.7 2.15-22.7 2.15-33 31.85-33 31.85-22.7 31.05-22.7 27.55-30.25 19.6-30.25 19.6-2.8 24.7-0.8 24.7 0ZM44.8 0L35.5 0 35.5-0.8 38.05-2.15 49.15-28.25 51.75-28.25 62.75-2.25 65.7-0.8 65.7 0 54.1 0 54.1-0.8 57.6-2.25 54.5-9.65 44.2-9.65 41.15-2.2 44.8-0.8 44.8 0ZM49.3-22.1L45.25-12.15 53.45-12.15 49.3-22.1ZM79.15 0.5L79.15 0.5Q76.45 0.5 74.47-0.05 72.5-0.6 70.5-1.6L70.5-1.6 70.05-8.4 70.85-8.4 73.45-3.75Q74.8-2.7 76.3-2.3 77.8-1.9 79.35-1.9L79.35-1.9Q82.1-1.9 83.6-3 85.1-4.1 85.1-6.4L85.1-6.4Q85.1-8.1 84.2-9.05 83.3-10 81.5-10.83 79.7-11.65 77.05-12.9L77.05-12.9Q73.9-14.4 72.5-16.03 71.1-17.65 71.1-20.4L71.1-20.4Q71.1-22.6 72.37-24.45 73.65-26.3 75.77-27.43 77.9-28.55 80.4-28.55L80.4-28.55Q82.55-28.55 84.35-28.03 86.15-27.5 87.8-26.65L87.8-26.65 88.2-20.1 87.4-20.1 85.1-24.5Q83.05-26.15 80.5-26.15L80.5-26.15Q78.1-26.15 76.72-24.98 75.35-23.8 75.35-21.8L75.35-21.8Q75.35-20.5 76-19.63 76.65-18.75 78.02-17.98 79.4-17.2 81.55-16.15L81.55-16.15Q84.35-14.8 86.05-13.65 87.75-12.5 88.52-11.08 89.3-9.65 89.3-7.5L89.3-7.5Q89.3-5.15 87.97-3.35 86.65-1.55 84.35-0.53 82.05 0.5 79.15 0.5ZM107.14 0L94.94 0 94.94-0.8 98.59-2.45 98.59-25.55 94.94-27.2 94.94-28 107.14-28 107.14-27.2 103.54-25.55 103.54-2.45 107.14-0.8 107.14 0ZM124.84 0L116.94 0 103.54-14.25 115.14-25.8 111.99-27.2 111.99-28 122.04-28 122.04-27.2 119.19-26.1 108.44-15.8 121.34-2.15 124.84-0.8 124.84 0ZM151.04 0L135.69 0 135.69-0.8 140.74-2.8 140.74-30.25 132.84-30.25 129.29-22.7 128.49-22.7 128.49-33 158.19-33 158.19-22.7 157.39-22.7 153.89-30.25 145.94-30.25 145.94-2.8 151.04-0.8 151.04 0ZM171.14 0L161.84 0 161.84-0.8 164.39-2.15 175.49-28.25 178.09-28.25 189.09-2.25 192.04-0.8 192.04 0 180.44 0 180.44-0.8 183.94-2.25 180.84-9.65 170.54-9.65 167.49-2.2 171.14-0.8 171.14 0ZM175.64-22.1L171.59-12.15 179.79-12.15 175.64-22.1ZM206.54 0L196.34 0 196.34-0.8 199.89-2.45 200.84-25.55 196.99-27.2 196.99-28 206.64-28 215.79-7.5 225.24-28 234.44-28 234.44-27.2 230.74-25.85 231.44-2.45 234.64-0.8 234.64 0 223.04 0 223.04-0.8 226.39-2.4 225.94-23.15 215.19 0.2 213.69 0.2 203.39-23.1 202.89-2.4 206.54-0.8 206.54 0ZM263.68 0L240.43 0 240.43-0.8 244.03-2.45 244.03-25.55 240.43-27.2 240.43-28 262.43-28 262.43-20.8 261.63-20.8 259.03-25.5 248.98-25.5 248.98-15.75 256.28-15.75 257.98-19.2 258.78-19.2 258.78-9.85 257.98-9.85 256.28-13.25 248.98-13.25 248.98-2.5 260.13-2.5 262.88-8.15 263.68-8.15 263.68 0ZM281.83 0L269.98 0 269.98-0.8 273.63-2.45 273.63-25.55 269.98-27.2 269.98-28 282.08-28Q286.68-28 289.36-26.13 292.03-24.25 292.03-20.95L292.03-20.95Q292.03-18.55 290.56-16.82 289.08-15.1 286.33-14.1L286.33-14.1 294.03-2.35 297.33-0.8 297.33 0 289.48 0 281.58-12.75 278.53-12.75 278.53-2.5 281.83-0.8 281.83 0ZM280.88-25.55L280.88-25.55 278.53-25.55 278.53-15.2 281.08-15.2Q283.78-15.2 285.33-16.6 286.88-18 286.88-20.4L286.88-20.4Q286.88-22.95 285.31-24.25 283.73-25.55 280.88-25.55Z" opacity="1" transform="matrix(1,0,0,1,0,0)" fill="#fef6ff" class="undefined-text-0" data-fill-palette-color="primary" id="text-0"></path></svg></g></svg></g><g transform="matrix(1,0,0,1,0,41.14742906796749)"><svg viewBox="0 0 316.41600000000005 22.190922926829273" height="22.190922926829273" width="316.41600000000005"><g transform="matrix(1,0,0,1,0,0)"><svg width="316.41600000000005" viewBox="3.25 -37.70000076293945 680.2100219726562 47.709999084472656" height="22.190922926829273" data-palette-color="#2f8eff"><path d="M10.25-13.99L10.25 0 3.25 0 3.25-35.01 10.25-35.01 10.25-21 24.24-21 24.24-35.01 31.25-35.01 31.25 0 24.24 0 24.24-13.99 10.25-13.99ZM72.05-13.31L72.05-13.31Q72.05-10.38 71.01-7.85 69.96-5.32 68.15-3.48 66.34-1.64 63.91-0.57 61.48 0.49 58.7 0.49L58.7 0.49Q55.94 0.49 53.51-0.57 51.08-1.64 49.26-3.48 47.45-5.32 46.4-7.85 45.35-10.38 45.35-13.31L45.35-13.31Q45.35-16.28 46.4-18.82 47.45-21.36 49.26-23.21 51.08-25.05 53.51-26.1 55.94-27.15 58.7-27.15L58.7-27.15Q61.48-27.15 63.91-26.16 66.34-25.17 68.15-23.35 69.96-21.53 71.01-18.98 72.05-16.43 72.05-13.31ZM65.34-13.31L65.34-13.31Q65.34-14.92 64.82-16.22 64.29-17.53 63.39-18.47 62.48-19.41 61.28-19.91 60.07-20.41 58.7-20.41L58.7-20.41Q57.33-20.41 56.12-19.91 54.92-19.41 54.03-18.47 53.13-17.53 52.62-16.22 52.11-14.92 52.11-13.31L52.11-13.31Q52.11-11.79 52.62-10.5 53.13-9.2 54.03-8.25 54.92-7.3 56.12-6.75 57.33-6.2 58.7-6.2L58.7-6.2Q60.07-6.2 61.28-6.71 62.48-7.23 63.39-8.15 64.29-9.08 64.82-10.4 65.34-11.72 65.34-13.31ZM107.29 0L105.1-3.05Q104.29-2.32 103.38-1.67 102.46-1.03 101.46-0.55 100.46-0.07 99.4 0.21 98.33 0.49 97.23 0.49L97.23 0.49Q94.82 0.49 92.69-0.37 90.57-1.22 88.97-2.8 87.37-4.37 86.46-6.63 85.54-8.89 85.54-11.69L85.54-11.69 85.54-26.15 92.18-26.15 92.18-11.69Q92.18-10.38 92.58-9.34 92.99-8.3 93.67-7.59 94.35-6.88 95.27-6.52 96.19-6.15 97.23-6.15L97.23-6.15Q98.26-6.15 99.18-6.63 100.09-7.1 100.78-7.89 101.46-8.67 101.85-9.66 102.24-10.64 102.24-11.69L102.24-11.69 102.24-26.15 108.9-26.15 108.9 0 107.29 0ZM130.79-14.94L130.79 0 124.12 0 124.12-26.15 125.74-26.15 127.93-23.61Q129.54-25.07 131.58-25.87 133.62-26.66 135.84-26.66L135.84-26.66Q138.24-26.66 140.36-25.74 142.48-24.83 144.07-23.23 145.66-21.63 146.57-19.49 147.49-17.36 147.49-14.94L147.49-14.94 147.49 0 140.82 0 140.82-14.94Q140.82-15.97 140.43-16.88 140.04-17.8 139.36-18.48 138.67-19.17 137.77-19.56 136.87-19.95 135.84-19.95L135.84-19.95Q134.79-19.95 133.87-19.56 132.94-19.17 132.25-18.48 131.57-17.8 131.18-16.88 130.79-15.97 130.79-14.94L130.79-14.94ZM187.63-36.55L187.63 0 186.02 0 183.43-3.59Q182.48-2.73 181.42-1.99 180.36-1.25 179.19-0.7 178.01-0.15 176.78 0.17 175.55 0.49 174.28 0.49L174.28 0.49Q171.52 0.49 169.09-0.55 166.66-1.59 164.84-3.43 163.02-5.27 161.97-7.8 160.93-10.33 160.93-13.31L160.93-13.31Q160.93-16.26 161.97-18.8 163.02-21.34 164.84-23.19 166.66-25.05 169.09-26.1 171.52-27.15 174.28-27.15L174.28-27.15Q175.16-27.15 176.1-27 177.04-26.86 177.93-26.53 178.82-26.2 179.6-25.66 180.38-25.12 180.92-24.34L180.92-24.34 180.92-36.55 187.63-36.55ZM180.92-13.31L180.92-13.31Q180.92-14.67 180.4-15.95 179.87-17.24 178.97-18.23 178.06-19.21 176.86-19.81 175.65-20.41 174.28-20.41L174.28-20.41Q172.91-20.41 171.7-19.92 170.5-19.43 169.6-18.52 168.71-17.6 168.2-16.28 167.69-14.97 167.69-13.31L167.69-13.31Q167.69-11.87 168.2-10.57 168.71-9.28 169.6-8.3 170.5-7.32 171.7-6.76 172.91-6.2 174.28-6.2L174.28-6.2Q175.65-6.2 176.86-6.8 178.06-7.4 178.97-8.39 179.87-9.38 180.4-10.66 180.92-11.94 180.92-13.31ZM217.21 0L217.21 0 201.97 0 201.97-6.64 217.21-6.64Q217.89-6.64 218.38-7.13 218.87-7.62 218.87-8.3L218.87-8.3Q218.87-9.01 218.38-9.23 217.89-9.45 217.21-9.45L217.21-9.45 210.27-9.45Q208.54-9.45 207.03-10.11 205.51-10.77 204.39-11.9 203.27-13.04 202.62-14.55 201.97-16.06 201.97-17.8L201.97-17.8Q201.97-19.53 202.62-21.04 203.27-22.56 204.39-23.68 205.51-24.8 207.03-25.45 208.54-26.1 210.27-26.1L210.27-26.1 223.78-26.1 223.78-19.46 210.27-19.46Q209.59-19.46 209.1-18.97 208.61-18.48 208.61-17.8L208.61-17.8Q208.61-17.09 209.1-16.59 209.59-16.09 210.27-16.09L210.27-16.09 217.21-16.09Q218.92-16.09 220.43-15.52 221.94-14.94 223.07-13.92 224.19-12.89 224.85-11.45 225.51-10.01 225.51-8.3L225.51-8.3Q225.51-6.57 224.85-5.07 224.19-3.56 223.07-2.43 221.94-1.29 220.43-0.65 218.92 0 217.21 0ZM278.73-28L278.73 0 271.74 0 271.74-28 261.22-28 261.22-35.01 289.22-35.01 289.22-28 278.73-28ZM323.58-26.1L323.58 0 321.97 0 319.38-3.59Q318.43-2.73 317.37-1.99 316.31-1.25 315.14-0.7 313.96-0.15 312.73 0.17 311.5 0.49 310.23 0.49L310.23 0.49Q307.47 0.49 305.04-0.44 302.61-1.37 300.79-3.14 298.97-4.91 297.92-7.47 296.87-10.03 296.87-13.31L296.87-13.31Q296.87-16.36 297.92-18.91 298.97-21.46 300.79-23.29 302.61-25.12 305.04-26.14 307.47-27.15 310.23-27.15L310.23-27.15Q311.5-27.15 312.74-26.83 313.99-26.51 315.16-25.95 316.33-25.39 317.39-24.63 318.46-23.88 319.38-23L319.38-23 321.97-26.1 323.58-26.1ZM316.87-13.31L316.87-13.31Q316.87-14.67 316.34-15.95 315.82-17.24 314.92-18.23 314.01-19.21 312.8-19.81 311.6-20.41 310.23-20.41L310.23-20.41Q308.86-20.41 307.65-19.95 306.44-19.48 305.55-18.58 304.66-17.68 304.15-16.35 303.64-15.01 303.64-13.31L303.64-13.31Q303.64-11.6 304.15-10.27 304.66-8.94 305.55-8.03 306.44-7.13 307.65-6.67 308.86-6.2 310.23-6.2L310.23-6.2Q311.6-6.2 312.8-6.8 314.01-7.4 314.92-8.39 315.82-9.38 316.34-10.66 316.87-11.94 316.87-13.31ZM372.05-16.6L372.05 0 365.41 0 365.41-16.6Q365.41-17.29 365.16-17.9 364.9-18.51 364.44-18.97 363.97-19.43 363.36-19.69 362.75-19.95 362.07-19.95L362.07-19.95Q361.39-19.95 360.79-19.69 360.19-19.43 359.74-18.97 359.29-18.51 359.03-17.9 358.77-17.29 358.77-16.6L358.77-16.6 358.77 0 352.11 0 352.11-16.6Q352.11-17.29 351.85-17.9 351.6-18.51 351.13-18.97 350.67-19.43 350.06-19.69 349.45-19.95 348.76-19.95L348.76-19.95Q348.08-19.95 347.48-19.69 346.88-19.43 346.43-18.97 345.98-18.51 345.72-17.9 345.47-17.29 345.47-16.6L345.47-16.6 345.47 0 338.8 0 338.8-26.15 340.41-26.15 342.22-24.15Q343.61-25.32 345.28-25.96 346.96-26.61 348.76-26.61L348.76-26.61Q350.59-26.61 352.34-25.93 354.09-25.24 355.4-23.56L355.4-23.56Q356.01-24.39 356.8-24.98 357.58-25.56 358.44-25.93 359.31-26.29 360.24-26.45 361.17-26.61 362.07-26.61L362.07-26.61Q364.14-26.61 365.96-25.83 367.78-25.05 369.14-23.69 370.49-22.34 371.27-20.51 372.05-18.68 372.05-16.6L372.05-16.6ZM394.92-33.25L394.92-33.25Q394.92-32.32 394.56-31.52 394.21-30.71 393.6-30.11 392.99-29.52 392.17-29.16 391.35-28.81 390.42-28.81L390.42-28.81Q389.5-28.81 388.68-29.16 387.86-29.52 387.26-30.11 386.66-30.71 386.31-31.52 385.96-32.32 385.96-33.25L385.96-33.25Q385.96-34.16 386.31-34.97 386.66-35.79 387.26-36.39 387.86-36.99 388.68-37.34 389.5-37.7 390.42-37.7L390.42-37.7Q391.35-37.7 392.17-37.34 392.99-36.99 393.6-36.39 394.21-35.79 394.56-34.97 394.92-34.16 394.92-33.25ZM393.77-26.15L393.77 0 387.05 0 387.05-26.15 393.77-26.15ZM415.65-14.94L415.65 0 408.99 0 408.99-26.15 410.6-26.15 412.8-23.61Q414.41-25.07 416.45-25.87 418.48-26.66 420.71-26.66L420.71-26.66Q423.1-26.66 425.22-25.74 427.35-24.83 428.93-23.23 430.52-21.63 431.44-19.49 432.35-17.36 432.35-14.94L432.35-14.94 432.35 0 425.69 0 425.69-14.94Q425.69-15.97 425.3-16.88 424.9-17.8 424.22-18.48 423.54-19.17 422.63-19.56 421.73-19.95 420.71-19.95L420.71-19.95Q419.66-19.95 418.73-19.56 417.8-19.17 417.12-18.48 416.43-17.8 416.04-16.88 415.65-15.97 415.65-14.94L415.65-14.94ZM465.83-13.31L465.83-13.31Q465.83-14.67 465.31-15.95 464.78-17.24 463.88-18.23 462.98-19.21 461.77-19.81 460.56-20.41 459.19-20.41L459.19-20.41Q457.82-20.41 456.62-19.95 455.41-19.48 454.52-18.58 453.62-17.68 453.11-16.35 452.6-15.01 452.6-13.31L452.6-13.31Q452.6-11.67 453.11-10.36 453.62-9.06 454.52-8.13 455.41-7.2 456.62-6.7 457.82-6.2 459.19-6.2L459.19-6.2Q460.56-6.2 461.77-6.8 462.98-7.4 463.88-8.39 464.78-9.38 465.31-10.66 465.83-11.94 465.83-13.31ZM472.55-26.1L472.55-3.3Q472.55-0.54 471.5 1.88 470.45 4.3 468.63 6.1 466.81 7.91 464.38 8.96 461.95 10.01 459.19 10.01L459.19 10.01 455.85 9.96 455.85 3.3 459.14 3.34Q460.7 3.34 461.8 2.94 462.9 2.54 463.66 1.84 464.42 1.15 464.87 0.24 465.32-0.66 465.59-1.66L465.59-1.66Q465.2-1.03 464.46-0.62 463.73-0.22 462.84 0.04 461.95 0.29 460.99 0.39 460.02 0.49 459.19 0.49L459.19 0.49Q456.43 0.49 454-0.46 451.57-1.42 449.76-3.19 447.94-4.96 446.89-7.52 445.84-10.08 445.84-13.31L445.84-13.31Q445.84-16.26 446.89-18.8 447.94-21.34 449.76-23.19 451.57-25.05 454-26.1 456.43-27.15 459.19-27.15L459.19-27.15Q460.46-27.15 461.71-26.83 462.95-26.51 464.12-25.95 465.29-25.39 466.36-24.63 467.42-23.88 468.35-23L468.35-23 470.93-26.1 472.55-26.1ZM527.3-28L527.3 0 520.32 0 520.32-28 509.8-28 509.8-35.01 537.8-35.01 537.8-28 527.3-28ZM572.16-26.1L572.16 0 570.55 0 567.96-3.59Q567.01-2.73 565.94-1.99 564.88-1.25 563.71-0.7 562.54-0.15 561.31 0.17 560.07 0.49 558.8 0.49L558.8 0.49Q556.04 0.49 553.62-0.44 551.19-1.37 549.37-3.14 547.55-4.91 546.5-7.47 545.45-10.03 545.45-13.31L545.45-13.31Q545.45-16.36 546.5-18.91 547.55-21.46 549.37-23.29 551.19-25.12 553.62-26.14 556.04-27.15 558.8-27.15L558.8-27.15Q560.07-27.15 561.32-26.83 562.56-26.51 563.73-25.95 564.91-25.39 565.97-24.63 567.03-23.88 567.96-23L567.96-23 570.55-26.1 572.16-26.1ZM565.44-13.31L565.44-13.31Q565.44-14.67 564.92-15.95 564.39-17.24 563.49-18.23 562.59-19.21 561.38-19.81 560.17-20.41 558.8-20.41L558.8-20.41Q557.44-20.41 556.23-19.95 555.02-19.48 554.13-18.58 553.24-17.68 552.72-16.35 552.21-15.01 552.21-13.31L552.21-13.31Q552.21-11.6 552.72-10.27 553.24-8.94 554.13-8.03 555.02-7.13 556.23-6.67 557.44-6.2 558.8-6.2L558.8-6.2Q560.17-6.2 561.38-6.8 562.59-7.4 563.49-8.39 564.39-9.38 564.92-10.66 565.44-11.94 565.44-13.31ZM601.73 0L601.73 0 586.5 0 586.5-6.64 601.73-6.64Q602.42-6.64 602.9-7.13 603.39-7.62 603.39-8.3L603.39-8.3Q603.39-9.01 602.9-9.23 602.42-9.45 601.73-9.45L601.73-9.45 594.8-9.45Q593.07-9.45 591.55-10.11 590.04-10.77 588.91-11.9 587.79-13.04 587.14-14.55 586.5-16.06 586.5-17.8L586.5-17.8Q586.5-19.53 587.14-21.04 587.79-22.56 588.91-23.68 590.04-24.8 591.55-25.45 593.07-26.1 594.8-26.1L594.8-26.1 608.3-26.1 608.3-19.46 594.8-19.46Q594.12-19.46 593.63-18.97 593.14-18.48 593.14-17.8L593.14-17.8Q593.14-17.09 593.63-16.59 594.12-16.09 594.8-16.09L594.8-16.09 601.73-16.09Q603.44-16.09 604.95-15.52 606.47-14.94 607.59-13.92 608.71-12.89 609.37-11.45 610.03-10.01 610.03-8.3L610.03-8.3Q610.03-6.57 609.37-5.07 608.71-3.56 607.59-2.43 606.47-1.29 604.95-0.65 603.44 0 601.73 0ZM630.43-3.34L630.43 0 623.71 0 623.71-36.55 630.43-36.55 630.43-13.5 640.36-26.1 648.03-26.1 639.36-15.21 648.03 0 640.36 0 635.07-9.5 630.43-3.34ZM675.16 0L675.16 0 659.93 0 659.93-6.64 675.16-6.64Q675.85-6.64 676.34-7.13 676.82-7.62 676.82-8.3L676.82-8.3Q676.82-9.01 676.34-9.23 675.85-9.45 675.16-9.45L675.16-9.45 668.23-9.45Q666.5-9.45 664.98-10.11 663.47-10.77 662.35-11.9 661.22-13.04 660.58-14.55 659.93-16.06 659.93-17.8L659.93-17.8Q659.93-19.53 660.58-21.04 661.22-22.56 662.35-23.68 663.47-24.8 664.98-25.45 666.5-26.1 668.23-26.1L668.23-26.1 681.73-26.1 681.73-19.46 668.23-19.46Q667.55-19.46 667.06-18.97 666.57-18.48 666.57-17.8L666.57-17.8Q666.57-17.09 667.06-16.59 667.55-16.09 668.23-16.09L668.23-16.09 675.16-16.09Q676.87-16.09 678.39-15.52 679.9-14.94 681.02-13.92 682.15-12.89 682.81-11.45 683.46-10.01 683.46-8.3L683.46-8.3Q683.46-6.57 682.81-5.07 682.15-3.56 681.02-2.43 679.9-1.29 678.39-0.65 676.87 0 675.16 0Z" opacity="1" transform="matrix(1,0,0,1,0,0)" fill="#2f8eff" class="undefined-text-1" data-fill-palette-color="secondary" id="text-1"></path></svg></g></svg></g></svg></g></svg></g><g></g></svg></g></svg></g></svg></g><g mask="url(#11e3439b-641f-42a0-adc6-a5c0d149654d)"><g transform="matrix(2.621058172112937, 0, 0, 2.621058172112937, 66.40304568681918, 1)"><svg xmlns="http://www.w3.org/2000/svg" xmlns:xlink="http://www.w3.org/1999/xlink" version="1.1" x="0" y="0" viewBox="0 2 100.23200225830078 93.55000305175781" enable-background="new 0 0 100 100" xml:space="preserve" width="100.23200225830078" height="93.55000305175781" class="icon-none" data-fill-palette-color="accent" id="none"><g fill="#fef6ff" data-fill-palette-color="accent"><path fill-rule="evenodd" clip-rule="evenodd" d="M36.163 71.443c0.794 0.611 1.527 1.283 2.48 1.736 0.692-1.098 1.815-2.092 2.108-3.597 0.112-0.568-0.075-1.135 0-1.738 0.172-1.372 0.658-2.773 0.746-4.217-0.16-0.006-0.172-0.159-0.373-0.124-0.983 1.395-2.182 3.165-1.985 5.335C38.094 69.652 36.893 70.313 36.163 71.443z" fill="#fef6ff" data-fill-palette-color="accent"></path><path fill-rule="evenodd" clip-rule="evenodd" d="M41.87 74.296c0.473 0.726 1.809 0.589 2.356 1.241 4.033 0.93 7.601 2.322 10.667 4.218 0.474-2.71-0.146-5.391-0.992-7.195-0.915-0.588-1.603-1.345-1.736-2.48-0.164-1.382-0.508-2.171-0.621-3.35-0.041-0.438 0.084-0.966 0-1.364-0.06-0.288-0.345-0.541-0.495-0.868-0.601-1.309-1.196-2.368-2.357-2.854-0.187 0.525 0.33 0.982 0.125 1.116-0.201-0.677-0.715-0.264-0.745 0.248 0.023-0.355 0.016-0.677-0.373-0.62-0.39 0.089 0.341 0.709 0 0.745-0.797-0.442-0.436-2.044-1.364-2.357-0.507 1.353-0.378 3.343-1.364 4.218-0.167 1.871-1.118 3.749-0.248 5.583-0.482 0.096-0.697 0.459-1.117 0.619C43.226 72.428 42.249 73.064 41.87 74.296z" fill="#fef6ff" data-fill-palette-color="accent"></path><path fill-rule="evenodd" clip-rule="evenodd" d="M58.244 81.243c1.354 0.299 2.365 0.941 3.845 1.117 0.047-0.487 0.408-0.809 0.619-1.241 1.04-2.119 1.064-5.258 1.118-8.558-1.257-1.728-3.101-2.79-4.342-4.519C59.141 67.564 59.068 67 58.367 67c-0.083 0-0.165 0-0.248 0 0.106 1 0.71 2.938 0.868 4.764 0.278 0.42 0.817-0.514 0.868-0.284C58.801 74.228 58.049 77.245 58.244 81.243z" fill="#fef6ff" data-fill-palette-color="accent"></path><path fill-rule="evenodd" clip-rule="evenodd" d="M49.974 2C22.374 2 0 24.374 0 51.974c0 13.99 5.756 26.632 15.021 35.703-0.224-0.601-0.122-1.231 0.178-1.844 2.188-1.072 3.373-3.233 3.226-6.327-0.034-0.702-0.479-1.768-0.249-2.729 0.978-0.79 1.816-0.451 2.729-0.621 1.645-0.305 2.944-1.497 3.969-2.231 0.417-0.3 0.907-0.447 1.365-0.745 2.095-1.361 3.222-2.899 6.327-2.232 0.214-0.613 0.565-1.089 1.24-1.24 0.924-1.14 1.693-2.833 2.605-4.218 0.173-0.264 0.487-0.346 0.62-0.62 0.161-0.331 0.111-0.84 0.249-1.241 0.169-0.492 0.528-0.858 0.62-1.24 0.208-0.859-0.067-1.379-0.248-1.86-0.54-1.435-0.71-2.981-0.745-4.59-0.469-0.179-0.238 0.341-0.62 0.248-0.623-1.628-0.442-2.841-0.744-4.838-0.364-0.001-0.42 0.574-0.744 0.248-0.189-0.847 0.702-1.147 0.372-1.736-0.37-0.356-0.368 0.361-0.868 0.248 0.145-1.013 0.766-1.55 0.744-2.73-0.18-0.067-0.641 0.146-0.62-0.124 0.387-0.854 0.843-1.637 0.992-2.729-0.39-0.141-0.301 0.195-0.496 0.249-0.463-0.998 0.7-1.991 0.372-2.853-0.401-0.154-0.094 0.4-0.496 0.248 0.21-1.774 1.229-2.74 2.232-3.722 0.259-1.147 0.96-1.851 0.993-3.225 0.348-0.232 0.522-0.637 0.62-1.117-0.165-0.304-0.461 0.136-0.496-0.125 0.206-0.333 0.67-0.951 0-1.116 0.359-0.509 0.796-0.94 0.992-1.613-0.002-0.205-0.344-0.069-0.373-0.248 1.172-0.806 0.737-2.802 0.373-4.218 0.181-0.108 0.393-0.187 0.372-0.497-0.268-0.683-0.753-1.149-1.116-1.737 0.226-0.674 0.447-1.325 0.495-1.86 0.293-0.002 0.365 0.214 0.746 0.124-0.778-1.074 0.227-2.457 0.992-3.101 1.049 0.059 1.212 1.187 1.861 1.86 0.459 0.477 1.186 0.611 1.612 1.117 0.301 0.357 0.407 0.821 0.621 1.241 0.458 0.121 0.669 0.488 1.365 0.372 0.368 0.541 1.051 0.768 1.364 1.364 0.483 1.212 1.015 2.375 1.24 3.846 1.144 0.675 2.435 1.204 2.605 2.853-0.615 0.304-1.269-0.036-1.985 0 0.15 0.402 0.561 0.742 0.62 1.24 0.101 0.85-0.431 1.492-0.249 2.233 0.289 1.167 1.498 1.033 1.985 2.232-0.234 0.056-0.748-0.168-0.62 0.249 0.582 0.369 1.191 0.71 1.736 1.116-0.46-0.088-0.532 0.211-0.992 0.124 0.02 0.559 0.768 0.391 0.744 0.993-0.256 0.075-0.469 0.191-0.372 0.62 0.36 0.136 0.881 0.112 1.24 0.248-0.115 0.298-0.498 0.328-0.372 0.868 0.681 0.395 0.979 1.173 1.239 1.985 0.803 0.396 1.598 0.801 2.234 1.364 0.039 0.168 0.177 0.236 0.123 0.497 1.241 0.5 1.529 1.953 2.357 2.729 1.018 0.952 2.617 1.594 3.721 2.233 0.423 0.244 0.668 0.534 1.118 0.869 0.64 0.477 1.809 0.211 2.479 0.867 0.535 1.109 1.608 1.501 2.233 2.358 0.651 0.891 0.736 1.991 1.612 2.852 1.12 0.163 1.729 0.836 2.48 1.366 0 0.413 0.404 0.422 0.374 0.867 1.821 1.363 1.46 4.396 1.983 5.954 0.732 2.171 1.281 3.718 3.598 4.094 1.37 0.223 2.864-0.421 3.722 0.495-1.489-0.041-1.979 0.916-3.102 1.24-0.391 0.228 0.417 0.832 0 1.03C78.448 73.012 78.061 74 78.091 74c-0.373 0-0.744 0-1.116 0 0.06 0-0.228 0.271-0.373 0.582-0.459-0.2-0.91-0.632-1.612-0.591-0.072 0.218 0.15 0.634-0.123 0.647-0.345-0.193-0.69-0.433-1.116-0.542 0.018 0.307 0.022 0.577-0.249 0.597-1.114-0.333-1.508-1.781-2.604-1.751-0.394-0.971-0.593-2.143-0.993-3.105 0.114-1.027-0.077-1.056-0.123-1.989-0.167-0.245-0.866 0.039-0.869-0.372 0.097-0.511-0.19-0.639-0.123-1.117-0.625 0.169-0.411-0.5-0.621-0.745-0.158-0.174-0.608-0.055-0.621-0.373-0.205-0.538-0.093-1.395-0.62-1.612-1.002 2.14 0.309 3.739 0.994 5.582 0.098 0.267 0.097 0.943 0.37 1.489 0.028 0.055 0.313 0.153 0.369 0.248 0.177 0.296 0.744 1.085 0.744 1.115 0-0.021-0.563 0.634-0.625 0.745-0.408 0.726-0.327 0.976-0.504 1.736-0.497 2.126-1.973 3.97-1.382 6.327-0.65 0.798-1.342 1.589-1.649 2.729 1.104 0.674 1.886 1.601 3.155 2.109 1.199 1.737 3.247 2.771 4.239 4.713C73.788 90.803 74 93.026 75 93.44v2.11c15-8.563 25.232-24.863 25.232-43.577C100.232 24.374 77.574 2 49.974 2z" fill="#fef6ff" data-fill-palette-color="accent"></path></g></svg></g></g></svg></g><defs><mask id="11e3439b-641f-42a0-adc6-a5c0d149654d"><rect width="640" height="400" fill="white"></rect><rect width="348.05760000000004" height="73.81792557788617" fill="black" y="86.69103721105691" x="23.731199999999973" id="transform-me"></rect></mask></defs></svg><rect width="395.52" height="247.2" fill="none" stroke="none" visibility="hidden"></rect></g></svg></g></svg>